<?xml version="1.0" encoding="UTF-8" standalone="no"?>
<svg
   xmlns:dc="http://purl.org/dc/elements/1.1/"
   xmlns:cc="http://creativecommons.org/ns#"
   xmlns:rdf="http://www.w3.org/1999/02/22-rdf-syntax-ns#"
   xmlns:svg="http://www.w3.org/2000/svg"
   xmlns="http://www.w3.org/2000/svg"
   xmlns:xlink="http://www.w3.org/1999/xlink"
   xmlns:sodipodi="http://sodipodi.sourceforge.net/DTD/sodipodi-0.dtd"
   xmlns:inkscape="http://www.inkscape.org/namespaces/inkscape"
   width="162.78415mm"
   height="152.31458mm"
   viewBox="0 0 162.78415 152.31458"
   version="1.1"
   id="svg5"
   inkscape:version="1.0.2-2 (e86c870879, 2021-01-15)"
   sodipodi:docname="Barelu.svg"
   inkscape:export-filename="E:\Farfan\Desktop\Barelu.png"
   inkscape:export-xdpi="200"
   inkscape:export-ydpi="200">
  <title
     id="title345821">logo de barelu bebidas</title>
  <sodipodi:namedview
     id="namedview7"
     pagecolor="#ffffff"
     bordercolor="#666666"
     borderopacity="1.0"
     inkscape:pageshadow="2"
     inkscape:pageopacity="0.0"
     inkscape:pagecheckerboard="0"
     inkscape:document-units="mm"
     showgrid="false"
     inkscape:snap-intersection-paths="true"
     inkscape:zoom="1"
     inkscape:cx="357.18556"
     inkscape:cy="292.55409"
     inkscape:window-width="1920"
     inkscape:window-height="1017"
     inkscape:window-x="1912"
     inkscape:window-y="-8"
     inkscape:window-maximized="1"
     inkscape:current-layer="layer2"
     inkscape:document-rotation="0" />
  <defs
     id="defs2">
    <linearGradient
       inkscape:collect="always"
       id="linearGradient1195">
      <stop
         style="stop-color:#48d800;stop-opacity:1;"
         offset="0"
         id="stop1191" />
      <stop
         style="stop-color:#48d800;stop-opacity:0;"
         offset="1"
         id="stop1193" />
    </linearGradient>
    <linearGradient
       inkscape:collect="always"
       id="linearGradient1135">
      <stop
         style="stop-color:#0080e8;stop-opacity:1;"
         offset="0"
         id="stop1131" />
      <stop
         style="stop-color:#0080e8;stop-opacity:0;"
         offset="1"
         id="stop1133" />
    </linearGradient>
    <rect
       x="78"
       y="660"
       width="661"
       height="116"
       id="rect325664" />
    <rect
       x="94"
       y="598"
       width="643"
       height="215"
       id="rect294200" />
    <rect
       x="98"
       y="516"
       width="654"
       height="157"
       id="rect252830" />
    <rect
       x="98"
       y="516"
       width="654"
       height="157"
       id="rect253388" />
    <rect
       id="p"
       width="8"
       height="8"
       x="0"
       y="0" />
    <radialGradient
       inkscape:collect="always"
       xlink:href="#linearGradient1135"
       id="radialGradient1137"
       cx="347.26099"
       cy="415.38641"
       fx="347.26099"
       fy="415.38641"
       r="250.25"
       gradientTransform="matrix(0.33044087,-0.27789613,0.3012776,0.31572771,-118.21732,68.232692)"
       gradientUnits="userSpaceOnUse" />
    <radialGradient
       inkscape:collect="always"
       xlink:href="#linearGradient1195"
       id="radialGradient1197"
       cx="387.99997"
       cy="657.55127"
       fx="387.99997"
       fy="657.55121"
       r="60.999226"
       gradientTransform="matrix(-1.6099651,0.00582816,-4.4858024e-4,-0.10920845,759.52307,206.19266)"
       gradientUnits="userSpaceOnUse" />
    <radialGradient
       inkscape:collect="always"
       xlink:href="#linearGradient1195"
       id="radialGradient1199"
       cx="387.99982"
       cy="536.30225"
       fx="387.99982"
       fy="536.30225"
       r="150.28018"
       gradientTransform="matrix(-0.65349021,0.00236566,-0.00197448,-0.48069547,389.17471,393.52401)"
       gradientUnits="userSpaceOnUse" />
  </defs>
  <g
     inkscape:groupmode="layer"
     id="layer3"
     inkscape:label="verde"
     style="display:inline"
     transform="translate(-32.815527,-18.416673)">
    <path
       style="fill:#43c203;fill-opacity:1;stroke:none;stroke-width:0.306403px;stroke-linecap:round;stroke-linejoin:round;stroke-opacity:1"
       d="m 133.93568,107.53928 c 2.62244,0.48205 4.1696,1.78516 4.80767,4.61833 0.56593,3.2253 0.19307,5.56929 -1.45348,6.71756 -2.60578,1.54418 -5.61411,2.4585 -9.1681,2.51908 -3.13057,-0.36202 -6.26116,-0.81907 -9.39173,-1.57442 l -11.73964,-2.72902 c -2.10659,-0.3998 -4.25233,-0.68933 -6.26115,-1.3645 -0.45284,-0.21808 -0.757822,-0.52867 -0.894447,-0.94465 9.32e-4,-0.55892 0.136076,-1.2145 0.664057,-1.27865 1.32986,-0.58528 1.95566,-0.17461 2.57833,-0.19082 l 7.93145,1.37723 c 2.80008,0.57732 5.51,1.22516 8.91736,1.3274 2.55058,-0.0735 5.2542,0.0327 7.41312,-0.50043 2.20503,-0.0623 3.28918,-1.52751 4.24863,-3.14886 0.005,-5.07547 1.68094,-4.86784 2.34793,-4.82825 z"
       id="path188356"
       sodipodi:nodetypes="ccccccccccccccc" />
    <path
       style="fill:#43c203;fill-opacity:1;stroke:none;stroke-width:0.306403px;stroke-linecap:butt;stroke-linejoin:miter;stroke-opacity:1"
       d="m 84.626699,125.00952 c 1.721202,-5.48167 8.179605,-4.46372 11.574404,-4.24504 l 11.767597,1.44322 c 12.61381,1.90541 20.27343,2.35143 23.73087,2.02052 3.70267,0.10155 6.50343,-0.84273 8.94448,-2.2042 2.13634,-0.91506 3.51369,-3.76689 3.74552,-5.30057 -0.0267,-1.39048 0.26899,-2.44054 0.83854,-3.20133 0.49917,-1.37289 1.89139,-1.25666 3.04673,-0.91843 4.27062,3.11498 5.42949,6.50517 9.19605,9.73522 4.38637,2.18087 6.94019,0.28102 8.44136,-0.73474 3.07784,-4.07041 5.2514,-4.74515 7.37921,-5.24809 2.57953,-0.54201 5.56694,-0.78917 7.2115,-0.65601 0.7097,52.29287 -82.957436,55.2503 -95.876261,9.30945 z"
       id="path207052"
       sodipodi:nodetypes="ccccccccccccc" />
    <path
       style="fill:#a0a0a0;stroke:none;stroke-width:0.306403"
       d="m 127.97944,156.39317 c -4.50837,-0.17081 -6.11087,-0.35559 -8.64573,-0.9969 -11.34783,-2.87097 -21.058831,-8.74117 -27.275389,-16.48769 -2.22036,-2.76682 -5.235938,-8.1416 -6.433497,-11.46666 -0.910146,-2.52706 -0.75965,-3.36945 0.87633,-4.90529 2.618959,-2.45863 5.008341,-2.39114 28.512616,0.80542 4.98262,0.67763 6.97609,0.79959 13.44002,0.82232 7.17149,0.0252 7.68633,-0.0101 9.34439,-0.64028 4.28999,-1.63059 6.06136,-3.4721 6.65206,-6.91547 0.51226,-2.9861 1.52819,-4.36384 2.96778,-4.02464 1.20029,0.28281 2.8631,1.79863 5.56504,5.07311 3.92507,4.75678 5.41492,5.79898 8.27003,5.78523 2.13047,-0.0101 3.97528,-0.98714 6.21523,-3.29115 2.90984,-2.99306 4.93166,-3.80443 10.71855,-4.30143 l 2.29773,-0.19734 -0.18775,2.6365 c -0.73589,10.33349 -4.88759,18.6693 -12.85478,25.8099 -6.00721,5.38396 -12.78744,8.77559 -21.95603,10.98289 -5.72977,1.37942 -9.08293,1.63062 -17.5066,1.31148 z"
       id="path1091" />
    <path
       style="fill:#a0a0a0;stroke:none;stroke-width:0.306403"
       d="m 125.12918,156.12105 c -12.43566,-0.9775 -27.335796,-9.24397 -34.008153,-18.86742 -3.007894,-4.33826 -5.833399,-10.20446 -5.833399,-12.11109 0,-1.18289 1.415208,-2.89561 2.962006,-3.58468 2.195395,-0.97801 8.336489,-0.56484 24.550496,1.65177 6.22924,0.85161 7.51464,0.93168 15.33743,0.95545 l 8.53836,0.0259 1.88407,-0.82823 c 3.8726,-1.70239 5.12422,-3.12994 6.14901,-7.01342 1.36858,-5.18624 2.63173,-4.92256 8.44319,1.76247 3.82767,4.40306 5.18913,5.33699 7.78012,5.33699 2.57227,0 3.676,-0.52332 6.57888,-3.11927 3.46464,-3.0983 5.24108,-3.789 11.34944,-4.41272 l 1.39032,-0.14198 -0.18922,2.87214 c -0.45602,6.92216 -2.97562,13.69301 -7.20016,19.34879 -0.91472,1.22463 -3.16923,3.63344 -5.01003,5.35293 -6.58402,6.15019 -13.87166,9.72453 -24.53467,12.03344 -2.88293,0.62426 -4.4804,0.77226 -9.32896,0.86429 -3.21769,0.061 -7.20412,0.004 -8.85873,-0.12541 z"
       id="path1093" />
    <path
       style="fill:url(#radialGradient1199);fill-opacity:1;stroke-width:0.306403"
       d="m 124.80417,156.07707 c -4.2637,-0.30883 -9.53542,-1.78054 -14.73321,-4.11309 -10.496359,-4.7103 -17.181245,-10.68409 -21.943012,-19.60883 -1.807697,-3.38808 -2.84032,-6.03112 -2.84032,-7.26993 0,-1.21433 1.338682,-2.8042 2.974898,-3.53311 2.174796,-0.96883 7.793096,-0.60859 23.430774,1.50235 7.42209,1.00192 8.42841,1.06935 16.44426,1.10191 l 8.53836,0.0347 2.05553,-0.91745 c 3.77712,-1.68587 4.89701,-3.01846 6.02923,-7.17442 1.29689,-4.76036 2.78047,-4.50202 7.84876,1.36675 2.77087,3.20851 5.01689,5.26271 6.22599,5.69426 1.259,0.44937 3.87647,0.34033 5.11913,-0.21324 0.61968,-0.27606 2.25236,-1.4902 3.62819,-2.6981 3.45803,-3.03594 5.17303,-3.69331 11.32017,-4.33905 l 1.4326,-0.1505 -0.24453,2.87993 c -0.86358,10.17084 -5.10609,18.49228 -12.97181,25.44347 -6.14862,5.43372 -12.86348,8.74382 -22.23794,10.96219 -5.57887,1.32018 -11.73281,1.63656 -20.07707,1.03219 z"
       id="path1097" />
    <path
       style="fill:url(#radialGradient1197);fill-opacity:1;stroke-width:0.306403"
       d="m 125.29144,120.87276 c -1.56537,-0.21539 -5.7634,-1.07 -9.32896,-1.89912 -3.56555,-0.82913 -8.38495,-1.89467 -10.70975,-2.36787 -2.32482,-0.47321 -4.42383,-1.01378 -4.66448,-1.20127 -0.24065,-0.1875 -0.43755,-0.65249 -0.43755,-1.03329 0,-1.23647 1.46191,-1.18755 9.81763,0.32848 7.55786,1.37126 7.77613,1.39314 12.61385,1.26404 5.61248,-0.14978 6.6331,-0.42328 8.18797,-2.19414 0.70581,-0.80386 1.00464,-1.45423 1.00587,-2.18925 0.002,-1.40483 0.53588,-3.12562 1.10702,-3.57061 0.70305,-0.54776 2.5379,-0.10245 3.77316,0.91571 1.35266,1.11496 2.07539,3.06421 2.07476,5.59576 -6.4e-4,2.58065 -0.64846,3.73896 -2.68892,4.80787 -3.05379,1.59977 -6.62076,2.11197 -10.7506,1.54369 z"
       id="path1099" />
  </g>
  <g
     inkscape:groupmode="layer"
     id="layer2"
     inkscape:label="Capa 2"
     style="display:inline;opacity:1"
     transform="translate(-32.815527,-18.416673)">
    <path
       style="opacity:1;fill:#003054;fill-opacity:1;fill-rule:nonzero;stroke:none;stroke-width:0;stroke-linecap:round;stroke-linejoin:round;stroke-miterlimit:4;stroke-dasharray:none;stroke-opacity:1"
       d=""
       id="path186346" />
    <path
       style="opacity:1;fill:#003054;fill-opacity:1;fill-rule:nonzero;stroke:none;stroke-width:0;stroke-linecap:round;stroke-linejoin:round;stroke-miterlimit:4;stroke-dasharray:none;stroke-opacity:1"
       d=""
       id="path186619" />
    <path
       style="opacity:1;fill:#003054;fill-opacity:1;fill-rule:nonzero;stroke:none;stroke-width:0;stroke-linecap:round;stroke-linejoin:round;stroke-miterlimit:4;stroke-dasharray:none;stroke-opacity:1"
       d=""
       id="path186658" />
    <path
       style="opacity:1;fill:#003054;fill-opacity:1;fill-rule:nonzero;stroke:none;stroke-width:0;stroke-linecap:round;stroke-linejoin:round;stroke-miterlimit:4;stroke-dasharray:none;stroke-opacity:1"
       d="m 73.413466,168.38342 c -7.255558,-0.83939 -7.535709,-2.46496 -9.261178,-4.12999 -2.324012,-2.24258 0.787982,-5.14869 0.787982,-5.14869 l 5.00721,-2.35824 c 0,0 6.557211,-0.36005 7.685368,-1.21286 1.932255,-1.46063 2.545368,-3.16069 2.166494,-6.00737 -0.266618,-2.00339 -1.885569,-3.79874 -3.899827,-4.32481 -1.232895,-0.32199 -4.416989,-0.31344 -16.695306,-0.43032 -11.283451,-0.10738 -12.305807,-0.23497 -13.809479,-0.95512 -1.140528,-0.54624 -3.048418,-1.67807 -3.476558,-2.85765 -0.65228,-1.79716 -0.37034,-3.5286 0.996229,-4.98975 1.158791,-1.239 2.473086,-1.67147 6.134168,-2.06235 5.817357,-0.62109 7.096914,-1.2153 8.311043,-2.93764 0.538639,-0.76412 0.921878,-1.6506 0.926157,-3.25867 0.0072,-2.45732 -0.687306,-2.96061 -1.639336,-3.94988 -1.764672,-1.83371 -1.909738,-1.90836 -12.520159,-2.51455 -7.491229,-0.42798 -7.260214,-0.70069 -8.527055,-1.83532 -1.432182,-2.51029 -0.723466,-6.02737 1.467355,-7.10161 3.057686,-1.44902 5.064554,-2.52165 13.596695,-2.68664 15.272192,-0.29532 16.015376,-0.29607 17.719379,-1.02843 1.437732,-0.61792 2.984552,-1.89703 3.387915,-2.80155 0.353283,-0.79223 0.396311,-3.40312 0.07398,-4.49232 C 71.243179,99.267263 69.449977,98.120321 66.321115,97.76684 65.310543,97.65266 62.191147,97.454763 59.38913,97.327051 51.052258,96.947078 48.7538,96.49093 46.952302,94.858845 c -3.046416,-2.759917 -1.931884,-6.47164 2.400148,-7.993247 1.757262,-0.617231 4.34959,-0.865306 9.073069,-0.868268 7.022833,-0.0045 17.239143,-0.392708 19.327589,-0.734609 4.374474,-0.716152 5.987665,-2.481805 5.656429,-6.190992 -0.277387,-3.106105 -1.449071,-3.965588 -7.424592,-5.446318 -1.475835,-0.365712 -3.4605,-0.90257 -4.410367,-1.193025 -3.089037,-0.944568 -4.687191,-2.834242 -4.356199,-5.150836 0.300503,-2.103291 2.715376,-3.479951 7.834736,-4.466417 4.168286,-0.803189 12.220756,-0.972698 14.33423,-0.301743 0.484053,0.153666 1.454083,0.778269 2.155618,1.388004 1.564485,1.359773 1.793226,1.851188 4.36049,9.367966 l 1.925513,5.637752 -0.07793,2.864156 c -0.09633,3.540206 -0.07948,3.505445 -4.033143,8.326094 -5.77856,7.045807 -7.063794,9.21715 -8.657036,14.625568 -2.083833,7.07381 -2.210503,14.05833 -0.370937,20.45288 1.438079,4.99892 4.398068,10.53636 7.851421,14.68815 6.74871,8.11362 18.262979,14.36601 30.178629,16.38735 2.5062,0.42515 12.34287,0.61502 15.5813,0.30077 4.33602,-0.42077 9.82028,-1.72214 14.45225,-3.42939 15.51811,-5.71967 26.11609,-18.3421 27.56742,-32.83343 0.37277,-3.72209 0.14443,-10.91493 -0.42545,-13.40192 -3.37659,-14.73562 -16.61647,-27.034044 -33.88533,-31.475843 -4.91845,-1.265105 -6.93941,-1.46216 -15.01654,-1.464203 -7.42666,-0.0022 -9.05278,0.123987 -12.52229,0.969298 -1.97383,0.480902 -1.90353,0.606392 -2.68519,1.293314 -0.76525,0.672515 -0.68652,2.703893 -0.0592,4.780525 1.0642,3.522757 0.85744,3.583382 4.68192,15.315943 1.50221,4.608406 1.64748,8.173486 0.56239,9.192156 -0.91693,0.86078 -4.39542,2.25436 -5.54268,1.93168 -1.8112,-0.50944 -5.36264,-2.51188 -6.59127,-5.87792 0,0 -11.193456,-41.470005 -17.515701,-62.410972 0,0 -2.043221,-6.064614 -3.808433,-6.487972 -25.945866,-1.941139 -27.758107,-13.03118 3.781575,-12.34867 7.42295,-0.28954 9.104529,6.650643 9.104529,6.650643 l 8.6445,29.297727 2.39212,4.859647 c 0.5109,1.037886 2.6991,0.921434 10.61318,1.062477 12.3998,0.220988 17.88208,0.614986 23.5807,1.694695 7.14052,1.352906 16.95998,5.292966 23.85701,9.572628 4.99222,3.097712 10.23195,8.307052 14.91946,14.832933 3.7405,5.207466 7.26253,13.235964 8.90159,20.291264 0.39512,1.70079 0.39183,10.55265 -0.005,12.7004 -1.83479,9.93732 -5.96673,18.59277 -12.17595,25.50573 -2.40872,2.68175 -7.64737,7.46766 -10.66836,9.74637 -10.19104,7.68707 -19.16591,10.5572 -36.14353,11.55855 -9.99658,0.58961 -46.007275,0.77034 -60.901873,0.30566 z"
       id="path187438"
       sodipodi:nodetypes="csccssssssssscssccssscsssscssssssssscscssssssssscssssssccccccsssssscssscc" />
    <path
       style="opacity:1;fill:#003054;fill-opacity:1;fill-rule:nonzero;stroke:none;stroke-width:0;stroke-linecap:round;stroke-linejoin:round;stroke-miterlimit:4;stroke-dasharray:none;stroke-opacity:1"
       d=""
       id="path188179" />
    <path
       style="fill:#003054;fill-opacity:1;stroke-width:1.39208;stroke-linecap:round;stroke-linejoin:round;stroke-miterlimit:4;stroke-dasharray:none;paint-order:stroke fill markers"
       d="m 68.948345,92.16863 c -0.239172,-0.103117 -0.460673,-0.299768 -0.400866,-0.355916 0.05879,-0.05521 0.463535,0.139471 0.630846,0.303415 0.181022,0.177385 0.101701,0.195495 -0.22998,0.05251 z"
       id="path20623" />
    <path
       style="fill:#003054;fill-opacity:1;stroke-width:1.39208;stroke-linecap:round;stroke-linejoin:round;stroke-miterlimit:4;stroke-dasharray:none;paint-order:stroke fill markers"
       d="m 78.170472,106.68647 c -0.04868,-0.11758 0.0025,-0.24276 0.116176,-0.28368 0.172028,-0.0619 0.206979,0.066 0.06124,0.2242 -0.122574,0.13306 -0.143977,0.14024 -0.177421,0.0595 z"
       id="path20662" />
    <path
       style="fill:#003054;fill-opacity:1;stroke-width:1.39208;stroke-linecap:round;stroke-linejoin:round;stroke-miterlimit:4;stroke-dasharray:none;paint-order:stroke fill markers"
       d="m 109.79801,87.855183 c -0.48023,-1.34917 -0.90719,-2.777736 -0.8302,-2.777736 0.0875,0 1.24186,3.555061 1.19618,3.683727 -0.0119,0.03366 -0.17663,-0.374059 -0.36598,-0.905991 z"
       id="path20701" />
    <ellipse
       style="fill:#003054;fill-opacity:1;stroke-width:7.87481;stroke-linecap:round;stroke-linejoin:round;stroke-miterlimit:4;stroke-dasharray:none;paint-order:stroke fill markers"
       id="path20866"
       cx="68.836533"
       cy="91.873734"
       rx="2.8790092"
       ry="2.1254773" />
    <ellipse
       style="fill:#003054;fill-opacity:1;stroke-width:7.87481;stroke-linecap:round;stroke-linejoin:round;stroke-miterlimit:4;stroke-dasharray:none;paint-order:stroke fill markers"
       id="path20868"
       cx="109.47809"
       cy="87.019241"
       rx="1.8727535"
       ry="3.358779" />
    <ellipse
       style="fill:#003054;fill-opacity:1;stroke-width:7.87481;stroke-linecap:round;stroke-linejoin:round;stroke-miterlimit:4;stroke-dasharray:none;paint-order:stroke fill markers"
       id="path20870"
       cx="77.864891"
       cy="106.54214"
       rx="1.7329959"
       ry="2.0467558" />
    <path
       style="fill:url(#radialGradient1137);fill-opacity:1;stroke-width:0.306403"
       d="m 77.539854,168.30691 c -7.92888,-0.27296 -9.367136,-0.64686 -12.096012,-3.1446 -2.220705,-2.0326 -2.401788,-2.65734 -1.337778,-4.61529 0.951547,-1.75101 4.727483,-3.47606 8.480516,-3.87434 3.741425,-0.39707 4.845676,-0.71618 5.799344,-1.67593 1.273254,-1.28136 1.525736,-1.96694 1.525208,-4.14149 -6.33e-4,-2.4137 -0.585972,-3.66897 -2.316388,-4.96716 -1.388433,-1.04162 0.391249,-0.91922 -19.187145,-1.31969 -12.303982,-0.25168 -12.650134,-0.3031 -15.094278,-2.24259 -2.020888,-1.60363 -2.026423,-4.50207 -0.01208,-6.32614 1.34959,-1.2221 1.985014,-1.42467 6.283681,-2.00311 4.153964,-0.55897 5.461494,-0.89484 6.72494,-1.72747 1.88806,-1.24426 2.71272,-4.99043 1.588269,-7.21498 -0.680698,-1.34664 -2.373333,-2.69989 -3.834617,-3.06572 -0.654519,-0.16387 -4.391922,-0.51836 -8.305337,-0.78777 -3.913415,-0.26942 -7.59978,-0.64195 -8.191921,-0.82785 -1.697447,-0.53292 -2.401972,-1.67701 -2.401972,-3.90054 0,-2.41279 0.613348,-3.2448 3.333129,-4.52139 3.626367,-1.7021 4.846098,-1.86283 17.246608,-2.27253 10.725603,-0.35436 11.496574,-0.41678 12.872705,-1.04217 2.835263,-1.28851 4.080118,-3.5764 3.522636,-6.47419 -0.443655,-2.30612 -1.537907,-3.501038 -3.755696,-4.101195 -0.877702,-0.237514 -4.815854,-0.629887 -8.751451,-0.871937 -7.8025,-0.479878 -9.57405,-0.748129 -11.439002,-1.732129 C 46.740878,94.69041 45.44194,92.772837 45.44194,91.3951 c 0,-2.061959 2.235379,-4.037805 5.376007,-4.751845 0.782683,-0.177946 6.474925,-0.447691 12.649425,-0.599433 12.277808,-0.301731 15.24701,-0.569351 17.387656,-1.567178 1.963327,-0.915177 2.698895,-2.199783 2.673305,-4.668704 -0.03607,-3.480549 -1.105282,-4.495877 -6.287074,-5.97026 -6.261729,-1.78166 -7.206587,-2.124262 -8.265423,-2.997024 -1.480893,-1.220645 -1.992252,-2.886783 -1.30265,-4.244368 1.300019,-2.559284 6.149531,-3.959929 14.610206,-4.219743 5.743937,-0.176387 6.988062,0.02829 8.823879,1.451733 1.557034,1.207277 2.457524,3.067404 4.737058,9.785293 1.536551,4.528275 1.776254,5.550761 1.774726,7.57036 -9.47e-4,1.284234 -0.1511,2.839809 -0.333622,3.456836 -0.182521,0.617022 -1.794757,2.954928 -3.58275,5.195346 -5.995318,7.512346 -7.084731,9.312513 -8.568319,14.158447 -1.761632,5.75412 -2.256528,12.9826 -1.256357,18.35041 0.897528,4.8169 3.52048,10.68653 6.913892,15.47186 5.27335,7.43638 14.170111,13.47776 24.714351,16.78237 5.65882,1.77349 8.23647,2.10025 16.54661,2.09751 7.78315,-0.002 11.07023,-0.43145 17.09385,-2.23035 15.65189,-4.67429 26.88567,-15.41481 30.39962,-29.06479 1.5107,-5.86837 1.4217,-15.88829 -0.18742,-21.10115 -4.02167,-13.028358 -15.91605,-23.832318 -31.29851,-28.429193 -5.77569,-1.725998 -6.95162,-1.852387 -17.23484,-1.852387 -8.09908,0 -9.63526,0.07364 -11.65238,0.558582 -1.27788,0.307218 -2.67017,0.841596 -3.09397,1.187509 -1.64478,1.342483 -1.35858,3.028197 2.73208,16.091623 3.84086,12.265726 3.70016,13.700216 -1.48481,15.137486 -1.56186,0.43294 -1.70315,0.42454 -2.95662,-0.17578 -1.74528,-0.83587 -4.01226,-2.82619 -4.73604,-4.15806 -0.32071,-0.59016 -1.95604,-6.073542 -3.63407,-12.185297 C 98.348912,62.608859 92.039683,40.47322 90.963055,37.719342 90.15371,35.649142 88.924157,33.394018 88.368905,32.961408 88.123246,32.770012 86.226591,32.406385 84.154112,32.153351 73.656817,30.871706 67.03513,27.937354 68.192331,25.080006 c 1.081368,-2.670102 7.433166,-4.275817 18.049493,-4.562859 7.527749,-0.203533 9.045196,0.08387 11.219332,2.124912 0.755231,0.708995 1.606484,1.712688 1.891675,2.23043 0.28519,0.517739 2.563389,7.846431 5.062659,16.28598 4.59317,15.510212 6.31516,20.165534 7.65089,20.683786 0.3166,0.122839 5.05828,0.339001 10.53705,0.480358 18.97119,0.48948 24.60256,1.33556 34.30334,5.153888 9.96475,3.922216 16.19778,7.98701 21.97907,14.333378 6.68014,7.33305 11.13885,15.396396 13.64402,24.674431 0.82129,3.04168 0.91036,3.85132 0.91036,8.27526 0,4.03369 -0.138,5.54353 -0.77778,8.50988 -1.52648,7.07751 -4.96564,14.72736 -9.11542,20.2757 -2.59369,3.46784 -10.83706,11.19691 -15.24754,14.29626 -4.0865,2.87168 -10.96252,6.20045 -15.0697,7.29542 -5.81215,1.54951 -11.63303,2.3648 -20.23942,2.83482 -6.80266,0.3715 -47.287657,0.61629 -55.450506,0.33526 z"
       id="path1095" />
  </g>
  <metadata
     id="metadata345819">
    <rdf:RDF>
      <cc:Work
         rdf:about="">
        <dc:title>logo de barelu bebidas</dc:title>
        <dc:format>image/svg+xml</dc:format>
        <dc:type
           rdf:resource="http://purl.org/dc/dcmitype/StillImage" />
      </cc:Work>
    </rdf:RDF>
  </metadata>
</svg>
